<?xml version="1.0" encoding="UTF-8"?>
<svg width="24px" height="24px" viewBox="0 0 24 24" version="1.1" xmlns="http://www.w3.org/2000/svg" xmlns:xlink="http://www.w3.org/1999/xlink">
    <title>icon_video</title>
    <defs>
        <linearGradient x1="100%" y1="114.16801%" x2="13.0299969%" y2="-17.3725667%" id="linearGradient-1">
            <stop stop-color="#FF6354" offset="0%"></stop>
            <stop stop-color="#EA1559" offset="100%"></stop>
        </linearGradient>
        <path d="M11.03012,11.9117647 C11.468699,11.9117647 11.8242376,12.2673033 11.8242376,12.7058824 C11.8242376,13.1444614 11.468699,13.5 11.03012,13.5 L4.39411765,13.5 C3.95553858,13.5 3.6,13.1444614 3.6,12.7058824 C3.6,12.2673033 3.95553858,11.9117647 4.39411765,11.9117647 L11.03012,11.9117647 Z M8.97731092,8.20588235 C9.41588999,8.20588235 9.77142857,8.56142093 9.77142857,9 C9.77142857,9.43857907 9.41588999,9.79411765 8.97731092,9.79411765 L4.39411765,9.79411765 C3.95553858,9.79411765 3.6,9.43857907 3.6,9 C3.6,8.56142093 3.95553858,8.20588235 4.39411765,8.20588235 L8.97731092,8.20588235 Z M13.6058824,4.5 C14.0444614,4.5 14.4,4.85553858 14.4,5.29411765 C14.4,5.73269671 14.0444614,6.08823529 13.6058824,6.08823529 L4.39411765,6.08823529 C3.95553858,6.08823529 3.6,5.73269671 3.6,5.29411765 C3.6,4.85553858 3.95553858,4.5 4.39411765,4.5 L13.6058824,4.5 Z" id="path-2"></path>
    </defs>
    <g id="页面-1" stroke="none" stroke-width="1" fill="none" fill-rule="evenodd">
        <g id="典型页面1：购物首页（手机）" transform="translate(-140.000000, -310.000000)">
            <g id="编组-9" transform="translate(16.000000, 156.000000)">
                <g id="icon_video" transform="translate(124.000000, 154.000000)">
                    <rect id="矩形" x="0" y="0" width="24" height="24"></rect>
                    <g id="Public/ic_public_notes" transform="translate(12.000000, 12.000000) scale(-1, 1) rotate(-90.000000) translate(-12.000000, -12.000000) translate(3.000000, 3.000000)">
                        <path d="M5.1277704,0 L12.8722296,0 C14.6173301,0 15.2738114,0.145501538 15.91208,0.419101342 L15.9536914,0.437126243 C16.5745027,0.70877366 17.0680807,1.10135834 17.4148264,1.59884476 L17.4657346,1.67425249 C17.8143488,2.20758582 18,2.73659966 18,4.19544851 L18,13.8045515 L17.9989932,13.9858083 C17.9842401,15.279039 17.8076257,15.7921872 17.487765,16.2917018 L17.4657346,16.3257475 C17.1337211,16.833684 16.6538954,17.2375206 16.0458564,17.5212216 L15.9536914,17.5628738 C15.3018396,17.8481035 14.6552671,18 12.8722296,18 L5.1277704,18 L4.90623426,17.9991763 C3.32561899,17.9871055 2.69843783,17.8426028 2.08791999,17.5808987 L2.04630859,17.5628738 C1.42549731,17.2912263 0.931919309,16.8986417 0.585173576,16.4011552 L0.534265408,16.3257475 C0.185651222,15.7924142 0,15.2634003 0,13.8045515 L0,4.19544851 C0,2.767639 0.177835213,2.23051798 0.512234974,1.70829817 L0.534265408,1.67425249 C0.866278917,1.16631598 1.34610464,0.762479435 1.9541436,0.47877838 L2.04630859,0.437126243 C2.69816044,0.151896455 3.34473292,0 5.1277704,0 Z" id="路径" fill="url(#linearGradient-1)" fill-rule="nonzero"></path>
                        <mask id="mask-3" fill="white">
                            <use xlink:href="#path-2"></use>
                        </mask>
                        <use id="形状结合" fill="#FFFFFF" fill-rule="nonzero" xlink:href="#path-2"></use>
                    </g>
                </g>
            </g>
        </g>
    </g>
</svg>