<?xml version="1.0" encoding="UTF-8"?>
<!--
  - Copyright (c) Huawei Technologies Co., Ltd. 2024-2024. All rights reserved.
  -->

<svg width="40px" height="40px" viewBox="0 0 40 40" version="1.1" xmlns="http://www.w3.org/2000/svg" xmlns:xlink="http://www.w3.org/1999/xlink">
    <title>ic_AI_read_on</title>
    <defs>
        <path d="M27.6297132,11.9702163 C29.767174,14.1120841 30.9900393,17.0075327 30.9900393,20.0946605 C30.9900393,23.1739324 29.7734214,26.0626391 27.6455849,28.2031692 C27.3535641,28.4969322 26.8786924,28.4983444 26.5849295,28.2063235 C26.2911665,27.9143026 26.2897543,27.4394309 26.5817752,27.145668 C28.4329978,25.2834019 29.4900393,22.7735894 29.4900393,20.0946605 C29.4900393,17.4089026 28.4275654,14.8932218 26.5679613,13.0297837 C26.2753698,12.736589 26.2758589,12.2617155 26.5690535,11.9691241 C26.8622482,11.6765326 27.3371217,11.6770216 27.6297132,11.9702163 Z M24.4901783,14.4979438 C25.9618152,15.9726149 26.8039928,17.9666873 26.8039928,20.0921781 C26.8039928,22.2122592 25.966117,24.2016903 24.5011051,25.6754418 C24.2090842,25.9692047 23.7342125,25.9706169 23.4404496,25.678596 C23.1466866,25.3865751 23.1452744,24.9117035 23.4372953,24.6179406 C24.6256934,23.4224531 25.3039928,21.8119162 25.3039928,20.0921781 C25.3039928,18.3680571 24.6222066,16.7537526 23.4284264,15.5575111 C23.1358349,15.2643164 23.136324,14.7894429 23.4295187,14.4968515 C23.7227133,14.2042601 24.1975868,14.2047491 24.4901783,14.4979438 Z M21.613475,23.0322585 C21.3215512,23.326118 20.8466801,23.3276871 20.5528206,23.0357634 C20.2589611,22.7438396 20.2573919,22.2689685 20.5493157,21.975109 C21.0399975,21.4811736 21.319589,20.817003 21.319589,20.1067087 C21.319589,19.4051196 21.0468694,18.7484563 20.5668561,18.2561312 C20.2776947,17.9595531 20.2837071,17.4847174 20.5802852,17.195556 C20.8768633,16.9063946 21.3516989,16.912407 21.6408603,17.2089851 C22.3913218,17.9786951 22.819589,19.0098911 22.819589,20.1067087 C22.819589,21.2171715 22.3805594,22.2600877 21.613475,23.0322585 Z M15.6714605,13.7718841 L12.379,16.3465759 L10.249811,16.347576 C9.00735931,16.3475759 8,17.3549352 8,18.5975759 L8,21.5975759 L8.00519081,21.7516247 C8.08435508,22.9224143 9.05913601,23.8475759 10.25,23.8475759 L12.38,23.8465759 L15.6713883,26.4232113 C15.9793423,26.6642187 16.3590415,26.795134 16.75,26.795134 C17.7164983,26.795134 18.5,26.0116323 18.5,25.045134 L18.5,15.1500178 C18.5,14.7590594 18.3690847,14.3793601 18.1281338,14.0714784 C17.5324729,13.3103561 16.4325828,13.1762232 15.6714605,13.7718841 Z M16.9468763,14.9959408 C16.9812978,15.0399239 17,15.0941666 17,15.1500178 L17,25.045134 C17,25.1832052 16.8880712,25.295134 16.75,25.295134 C16.6941488,25.295134 16.639906,25.2764318 16.5959229,25.2420103 L12.8975582,22.3469088 L10.249811,22.347576 C9.83578644,22.3475759 9.5,22.0117895 9.5,21.5975759 L9.5,18.5975759 C9.5,18.1833624 9.83578644,17.8475759 10.25,17.8475759 L12.8976351,17.8469088 L16.5958689,14.9531838 C16.7046547,14.8680472 16.8617818,14.887209 16.9468763,14.9959408 Z" id="path-1"></path>
    </defs>
    <g id="ic_AI_read_on" stroke="none" stroke-width="1" fill="none" fill-rule="evenodd">
        <circle id="椭圆形" fill="#0A59F7" cx="20" cy="20" r="20"></circle>
        <mask id="mask-2" fill="white">
            <use xlink:href="#path-1"></use>
        </mask>
        <use id="合并形状" fill-opacity="0.9" fill="#FFFFFF" fill-rule="nonzero" xlink:href="#path-1"></use>
    </g>
</svg>