<svg width="19.000000" height="13.000000" viewBox="0 0 19 13" fill="none" xmlns="http://www.w3.org/2000/svg" xmlns:xlink="http://www.w3.org/1999/xlink">
	<desc>
			Created with Pixso.
	</desc>
	<defs/>
	<path id="circle (边框)" d="M0 9.57C0 7.69 1.53 6.16 3.41 6.16C5.3 6.16 6.83 7.69 6.83 9.57C6.83 11.46 5.3 12.99 3.41 12.99C1.53 12.99 0 11.46 0 9.57ZM1.35 9.57C1.35 8.44 2.27 7.51 3.41 7.51C4.55 7.51 5.47 8.44 5.47 9.57C5.47 10.71 4.55 11.63 3.41 11.63C2.27 11.63 1.35 10.71 1.35 9.57Z" fill="#FFFFFF" fill-opacity="1.000000" fill-rule="evenodd"/>
	<path id="circle (边框)" d="M11.16 9.57C11.16 7.69 12.69 6.16 14.58 6.16C16.46 6.16 18 7.69 18 9.57C18 11.46 16.46 12.99 14.58 12.99C12.69 12.99 11.16 11.46 11.16 9.57ZM12.52 9.57C12.52 8.44 13.44 7.51 14.58 7.51C15.72 7.51 16.64 8.44 16.64 9.57C16.64 10.71 15.72 11.63 14.58 11.63C13.44 11.63 12.52 10.71 12.52 9.57Z" fill="#FFFFFF" fill-opacity="1.000000" fill-rule="evenodd"/>
	<path id="path" d="M6.15 9.93C5.78 9.93 5.47 9.62 5.47 9.25C5.47 8.9 5.74 8.61 6.07 8.57L6.15 8.57L7.16 8.57L6.18 4.9C6.08 4.54 6.3 4.17 6.66 4.07C7 3.98 7.34 4.16 7.47 4.48L8.53 8.44L12 2.7L11.68 1.35L10.47 1.35C10.12 1.35 9.83 1.09 9.79 0.75L9.79 0.67C9.79 0.33 10.05 0.04 10.39 0L10.47 0L12.2 0C12.48 0 12.73 0.17 12.83 0.42L12.86 0.5L15.23 9.4C15.33 9.76 15.11 10.13 14.75 10.23C14.42 10.32 14.07 10.14 13.95 9.82L12.51 4.48L9.41 9.6C9.3 9.78 9.12 9.89 8.92 9.92L8.83 9.93L6.15 9.93Z" fill="#FFFFFF" fill-opacity="1.000000" fill-rule="nonzero"/>
	<path id="path" d="M5.47 9.25C5.47 8.9 5.74 8.61 6.07 8.57L6.15 8.57L7.16 8.57L6.18 4.9C6.08 4.54 6.3 4.17 6.66 4.07C7 3.98 7.34 4.16 7.47 4.48L8.53 8.44L12 2.7L11.68 1.35L10.47 1.35C10.12 1.35 9.83 1.09 9.79 0.75L9.79 0.67C9.79 0.33 10.05 0.04 10.39 0L10.47 0L12.2 0C12.48 0 12.73 0.17 12.83 0.42L12.86 0.5L15.23 9.4C15.33 9.76 15.11 10.13 14.75 10.23C14.42 10.32 14.07 10.14 13.95 9.82L12.51 4.48L9.41 9.6C9.3 9.78 9.12 9.89 8.92 9.92L8.83 9.93L6.15 9.93C5.78 9.93 5.47 9.62 5.47 9.25Z" stroke="#000000" stroke-opacity="0" stroke-width="1.000000"/>
	<path id="line (边框)" d="M5.52 3.59L7.94 3.59C8.32 3.59 8.62 3.89 8.62 4.27C8.62 4.65 8.32 4.95 7.94 4.95L5.52 4.95C5.14 4.95 4.84 4.65 4.84 4.27C4.84 3.89 5.14 3.59 5.52 3.59Z" fill="#FFFFFF" fill-opacity="1.000000" fill-rule="evenodd"/>
</svg>
