<svg width="12.000000" height="12.000000" viewBox="0 0 12 12" fill="none" xmlns="http://www.w3.org/2000/svg" xmlns:xlink="http://www.w3.org/1999/xlink">
	<desc>
			Created with Pixso.
	</desc>
	<defs/>
	<path id="path-1" d="M4.97 1.14L8.86 5.03C9.38 5.55 9.39 6.39 8.89 6.93L4.99 10.82C4.89 10.92 4.77 10.98 4.63 10.99C4.49 10.99 4.28 10.93 4.17 10.82C3.95 10.6 3.94 10.25 4.14 10.02L7.75 6.41C7.97 6.19 7.98 5.84 7.78 5.61L4.17 1.99C3.94 1.77 3.94 1.39 4.17 1.17C4.28 1.06 4.42 1 4.56 1C4.7 1 4.86 1.05 4.97 1.14Z" fill="#0A59F7" fill-opacity="1.000000" fill-rule="nonzero"/>
</svg>
