<svg width="40.000000" height="40.000000" viewBox="0 0 40 40" fill="none" xmlns="http://www.w3.org/2000/svg" xmlns:xlink="http://www.w3.org/1999/xlink">
	<desc>
			Created with Pixso.
	</desc>
	<defs>
		<filter id="filter_18_3563_dd" x="0.000000" y="0.000000" width="40.000000" height="40.000000" filterUnits="userSpaceOnUse" color-interpolation-filters="sRGB">
			<feFlood flood-opacity="0" result="BackgroundImageFix"/>
			<feGaussianBlur in="BackgroundImage" stdDeviation="16.6667"/>
			<feComposite in2="SourceAlpha" operator="in" result="effect_backgroundBlur_1"/>
			<feBlend mode="normal" in="SourceGraphic" in2="effect_backgroundBlur_1" result="shape"/>
		</filter>
		<clipPath id="clip18_3568">
			<rect id="16184024-3e93-41de-92b9-2690bfc721c9" width="40.000000" height="40.000000" fill="white" fill-opacity="0"/>
		</clipPath>
	</defs>
	<g clip-path="url(#clip18_3568)">
		<g opacity="0.600000" filter="url(#filter_18_3563_dd)">
			<circle id="circle" cx="20.000000" cy="20.000000" r="20.000000" fill="#FFFFFF" fill-opacity="0"/>
			<circle id="circle" cx="20.000000" cy="20.000000" r="20.000000" stroke="#000000" stroke-opacity="0" stroke-width="1.000000"/>
		</g>
		<path id="path" d="M25.08 10.71C26.95 10.71 28.46 12.22 28.46 14.09L28.46 26.48C28.46 28.35 26.95 29.86 25.08 29.86L14.94 29.86C13.07 29.86 11.56 28.35 11.56 26.48L11.56 14.09C11.56 12.22 13.07 10.71 14.94 10.71L25.08 10.71ZM24.01 14.23L16.01 14.23C15.54 14.23 15.16 14.61 15.16 15.08C15.16 15.55 15.54 15.93 16.01 15.93L24.01 15.93C24.48 15.93 24.86 15.55 24.86 15.08C24.86 14.61 24.48 14.23 24.01 14.23Z" fill="#6294FA" fill-opacity="0.400000" fill-rule="nonzero"/>
		<path id="path" d="M28.46 14.09L28.46 26.48C28.46 28.35 26.95 29.86 25.08 29.86L14.94 29.86C13.07 29.86 11.56 28.35 11.56 26.48L11.56 14.09C11.56 12.22 13.07 10.71 14.94 10.71L25.08 10.71C26.95 10.71 28.46 12.22 28.46 14.09ZM16.01 14.23C15.54 14.23 15.16 14.61 15.16 15.08C15.16 15.55 15.54 15.93 16.01 15.93L24.01 15.93C24.48 15.93 24.86 15.55 24.86 15.08C24.86 14.61 24.48 14.23 24.01 14.23L16.01 14.23Z" stroke="#000000" stroke-opacity="0" stroke-width="1.000000"/>
		<path id="path" d="M24.35 17.8C27.74 17.8 30.5 20.55 30.5 23.95C30.5 25.29 30.07 26.53 29.34 27.54L30.89 29.09C31.29 29.48 31.29 30.11 30.89 30.51C30.54 30.86 29.98 30.89 29.59 30.6L29.48 30.51L27.92 28.95C26.92 29.67 25.68 30.1 24.35 30.1C20.95 30.1 18.2 27.34 18.2 23.95C18.2 20.55 20.95 17.8 24.35 17.8ZM24.35 19.83C22.07 19.83 20.23 21.68 20.23 23.95C20.23 26.22 22.07 28.06 24.35 28.06C26.62 28.06 28.46 26.22 28.46 23.95C28.46 21.68 26.62 19.83 24.35 19.83Z" fill="#0A59F7" fill-opacity="1.000000" fill-rule="nonzero"/>
	</g>
</svg>
