<svg width="19.000000" height="18.000000" viewBox="0 0 19 18" fill="none" xmlns="http://www.w3.org/2000/svg" xmlns:xlink="http://www.w3.org/1999/xlink">
	<desc>
			Created with Pixso.
	</desc>
	<defs/>
	<g opacity="0.000000">
		<rect id="矩形 300" width="18.000000" height="18.000000" fill="#C4C4C4" fill-opacity="1.000000"/>
	</g>
	<path id="circle (边框)" d="M0 11.57C0 9.69 1.53 8.16 3.41 8.16C5.3 8.16 6.83 9.69 6.83 11.57C6.83 13.46 5.3 14.99 3.41 14.99C1.53 14.99 0 13.46 0 11.57ZM1.35 11.57C1.35 10.44 2.27 9.51 3.41 9.51C4.55 9.51 5.47 10.44 5.47 11.57C5.47 12.71 4.55 13.63 3.41 13.63C2.27 13.63 1.35 12.71 1.35 11.57Z" fill="#FFFFFF" fill-opacity="1.000000" fill-rule="evenodd"/>
	<path id="circle (边框)" d="M11.16 11.57C11.16 9.69 12.69 8.16 14.58 8.16C16.46 8.16 18 9.69 18 11.57C18 13.46 16.46 14.99 14.58 14.99C12.69 14.99 11.16 13.46 11.16 11.57ZM12.52 11.57C12.52 10.44 13.44 9.51 14.58 9.51C15.72 9.51 16.64 10.44 16.64 11.57C16.64 12.71 15.72 13.63 14.58 13.63C13.44 13.63 12.52 12.71 12.52 11.57Z" fill="#FFFFFF" fill-opacity="1.000000" fill-rule="evenodd"/>
	<path id="path" d="M6.15 11.93C5.78 11.93 5.47 11.62 5.47 11.25C5.47 10.9 5.74 10.61 6.07 10.57L6.15 10.57L7.16 10.57L6.18 6.9C6.08 6.54 6.3 6.17 6.66 6.07C7 5.98 7.34 6.16 7.47 6.48L8.53 10.44L12 4.7L11.68 3.35L10.47 3.35C10.12 3.35 9.83 3.09 9.79 2.75L9.79 2.67C9.79 2.33 10.05 2.04 10.39 2L10.47 2L12.2 2C12.48 2 12.73 2.17 12.83 2.42L12.86 2.5L15.23 11.4C15.33 11.76 15.11 12.13 14.75 12.23C14.42 12.32 14.07 12.14 13.95 11.82L12.51 6.48L9.41 11.6C9.3 11.78 9.12 11.89 8.92 11.92L8.83 11.93L6.15 11.93Z" fill="#FFFFFF" fill-opacity="1.000000" fill-rule="nonzero"/>
	<path id="path" d="M5.47 11.25C5.47 10.9 5.74 10.61 6.07 10.57L6.15 10.57L7.16 10.57L6.18 6.9C6.08 6.54 6.3 6.17 6.66 6.07C7 5.98 7.34 6.16 7.47 6.48L8.53 10.44L12 4.7L11.68 3.35L10.47 3.35C10.12 3.35 9.83 3.09 9.79 2.75L9.79 2.67C9.79 2.33 10.05 2.04 10.39 2L10.47 2L12.2 2C12.48 2 12.73 2.17 12.83 2.42L12.86 2.5L15.23 11.4C15.33 11.76 15.11 12.13 14.75 12.23C14.42 12.32 14.07 12.14 13.95 11.82L12.51 6.48L9.41 11.6C9.3 11.78 9.12 11.89 8.92 11.92L8.83 11.93L6.15 11.93C5.78 11.93 5.47 11.62 5.47 11.25Z" stroke="#000000" stroke-opacity="0" stroke-width="1.000000"/>
	<path id="line (边框)" d="M5.52 5.59L7.94 5.59C8.32 5.59 8.62 5.89 8.62 6.27C8.62 6.65 8.32 6.95 7.94 6.95L5.52 6.95C5.14 6.95 4.84 6.65 4.84 6.27C4.84 5.89 5.14 5.59 5.52 5.59Z" fill="#FFFFFF" fill-opacity="1.000000" fill-rule="evenodd"/>
</svg>
