<?xml version="1.0" encoding="UTF-8"?>
<svg width="40px" height="40px" viewBox="0 0 40 40" version="1.1" xmlns="http://www.w3.org/2000/svg" xmlns:xlink="http://www.w3.org/1999/xlink">
    <title>ic_open</title>
    <defs>
        <path d="M29.25,25.9482759 C29.6642136,25.9482759 30,26.2840623 30,26.6982759 L30,26.75 C30,27.1642136 29.6642136,27.5 29.25,27.5 L10.75,27.5 C10.3357864,27.5 10,27.1642136 10,26.75 L10,26.6982759 C10,26.2840623 10.3357864,25.9482759 10.75,25.9482759 L29.25,25.9482759 Z M28.8098771,17.2966495 C29.3621618,17.2966495 29.8098771,17.7443647 29.8098771,18.2966495 L29.8098771,21.231826 C29.8098771,21.4970747 29.7044947,21.7514567 29.5169182,21.9389984 C29.1263576,22.3294865 28.4931927,22.3294277 28.1027046,21.9388671 L25.928479,19.7642377 L28.1027046,17.5896084 C28.2902463,17.4020318 28.5446284,17.2966495 28.8098771,17.2966495 Z M22.25,19.2241379 C22.6642136,19.2241379 23,19.5599244 23,19.9741379 L23,20.0258621 C23,20.4400756 22.6642136,20.7758621 22.25,20.7758621 L10.75,20.7758621 C10.3357864,20.7758621 10,20.4400756 10,20.0258621 L10,19.9741379 C10,19.5599244 10.3357864,19.2241379 10.75,19.2241379 L22.25,19.2241379 Z M29.25,12.5 C29.6642136,12.5 30,12.8357864 30,13.25 L30,13.3017241 C30,13.7159377 29.6642136,14.0517241 29.25,14.0517241 L10.75,14.0517241 C10.3357864,14.0517241 10,13.7159377 10,13.3017241 L10,13.25 C10,12.8357864 10.3357864,12.5 10.75,12.5 L29.25,12.5 Z" id="path-1"></path>
    </defs>
    <g id="ic_open" stroke="none" stroke-width="1" fill="none" fill-rule="evenodd">
        <circle id="椭圆形" fill-opacity="0.0509803922" fill="#000000" cx="20" cy="20" r="20"></circle>
        <mask id="mask-2" fill="white">
            <use xlink:href="#path-1"></use>
        </mask>
        <use id="形状结合" fill-opacity="0.9" fill="#000000" fill-rule="nonzero" xlink:href="#path-1"></use>
    </g>
</svg>