<?xml version="1.0" encoding="UTF-8"?>
<svg width="30.7505125px" height="24.2406643px" viewBox="0 0 30.7505125 24.2406643" version="1.1" xmlns="http://www.w3.org/2000/svg" xmlns:xlink="http://www.w3.org/1999/xlink">
    <title>play/ic_favourite_num</title>
    <g id="2.6" stroke="none" stroke-width="1" fill="none" fill-rule="evenodd">
        <g id="编组" transform="translate(0.750513, 0.000000)">
            <path d="M9.99987652,7.04669736 C9.96104392,7.01180417 9.93332224,6.98711965 9.91671147,6.97264381 C7.52365403,4.88715732 3.92963024,5.00274065 1.66969444,7.31939381 C-0.591732891,9.63757593 -0.493787509,13.2515146 1.58690644,16.0953985 C2.18064782,16.9069217 3.06825336,17.9051917 4.19978683,19.0390851 L4.39961425,19.2378303 C5.11083362,19.9358793 6.4904469,21.1687947 8.54844131,22.9465339 C9.38701684,23.6709133 10.6122912,23.6721716 11.452281,22.9495162 L12.3397958,22.1827655 C13.8469768,20.8745999 14.9032447,19.9233396 15.5138843,19.3236674 L15.5557641,19.2824002 C16.8040405,18.0480756 17.7771839,16.9645572 18.4130936,16.0953985 C19.4639861,14.6590429 20.0090914,13.0262509 20.0001119,11.4631815" id="路径" stroke-opacity="0.858823529" stroke="#FFFFFF" stroke-width="1.5" stroke-linecap="round" stroke-linejoin="round"></path>
            <text id="1W+" font-family="HarmonyHeiTi-Bold, HarmonyHeiTi" font-size="8" font-weight="bold" letter-spacing="0.10434783" fill="#000000">
                <tspan x="12" y="8">1W+</tspan>
            </text>
        </g>
    </g>
</svg>