<?xml version="1.0" encoding="UTF-8"?>
<svg width="24px" height="24px" viewBox="0 0 24 24" version="1.1" xmlns="http://www.w3.org/2000/svg" xmlns:xlink="http://www.w3.org/1999/xlink">
    <title>play/ic_lyrics_24</title>
    <g id="play/ic_lyrics_24" stroke="none" stroke-width="1" fill="none" fill-rule="evenodd">
        <rect id="矩形" fill="#D8D8D8" opacity="0" x="0" y="0" width="24" height="24"></rect>
        <path d="M18,2.25 C20.0710678,2.25 21.75,3.92893219 21.75,6 L21.75,18 C21.75,20.0710678 20.0710678,21.75 18,21.75 L6,21.75 C3.92893219,21.75 2.25,20.0710678 2.25,18 L2.25,6 C2.25,3.92893219 3.92893219,2.25 6,2.25 L18,2.25 Z M18,3.75 L6,3.75 C4.75735931,3.75 3.75,4.75735931 3.75,6 L3.75,18 C3.75,19.2426407 4.75735931,20.25 6,20.25 L18,20.25 C19.2426407,20.25 20.25,19.2426407 20.25,18 L20.25,6 C20.25,4.75735931 19.2426407,3.75 18,3.75 Z M17.0814844,7.30578125 L17.1814844,7.40578125 L17.1814844,15.7125 C17.1814844,15.9682398 17.1495292,16.2238814 17.0835402,16.4866228 C17.0155494,16.6905951 16.8959881,16.861397 16.7297916,16.9942211 C16.4991519,17.1966438 16.0958722,17.2975 15.5036719,17.2975 L14.0186719,17.2975 L13.9211586,17.2196621 L13.6891273,16.1987246 L13.7866406,16.0765625 L15.1788281,16.0765625 C15.4718184,16.0765625 15.6574572,16.0501481 15.7661179,15.9591995 C15.8830587,15.8658229 15.9141406,15.706626 15.9141406,15.3876562 L15.9135156,8.5265 L10.5382031,8.52671875 L10.4382031,8.42671875 L10.4382031,7.40578125 L10.5382031,7.30578125 L17.0814844,7.30578125 Z M9.23882812,10.3221875 L9.33882812,10.4221875 L9.33851562,14.9025 L10.0585824,14.3346367 L10.2139956,14.3775255 L10.5765156,15.3305 L10.5774219,11.814375 L10.6774219,11.714375 L14.7611719,11.714375 L14.8611719,11.814375 L14.8611719,15.526875 L14.7611719,15.626875 L10.6774219,15.626875 L10.5774219,15.526875 L10.5765156,15.3815 L10.5548561,15.4652677 C10.0335943,15.8887929 8.91572525,16.8636925 8.69728052,17.0878391 L8.66722751,17.1207508 L8.5161869,17.1266754 L7.82009315,16.3841754 L7.81304687,16.2557812 C7.96541628,16.052622 8.07148437,15.7597532 8.07148438,15.34125 L8.07051563,11.6355 L6.91851562,11.6359375 L6.81851562,11.5359375 L6.81851562,10.4221875 L6.91851562,10.3221875 L9.23882812,10.3221875 Z M13.6865156,12.8885 L11.7975156,12.8885 L11.7975156,14.4515 L13.6865156,14.4515 L13.6865156,12.8885 Z M15.5500781,9.5796875 L15.6500781,9.6796875 L15.6500781,10.6542187 L15.5500781,10.7542187 L10.2133594,10.7542187 L10.1133594,10.6542187 L10.1133594,9.6796875 L10.2133594,9.5796875 L15.5500781,9.5796875 Z M8.34704723,6.71996927 L8.48226613,6.74086917 C9.03970393,7.45315081 9.58166598,8.1654438 10.108152,8.87774839 L10.0822332,9.02103186 L9.15410821,9.62431311 L9.01751885,9.5975752 C8.52360091,8.88756815 7.99877759,8.17751307 7.44304637,7.46741208 L7.46532848,7.32325052 L8.34704723,6.71996927 Z" id="形状结合" fill="#FFFFFF" fill-opacity="0.86" fill-rule="nonzero"></path>
    </g>
</svg>