<?xml version="1.0" encoding="UTF-8"?>
<svg width="30px" height="30px" viewBox="0 0 30 30" version="1.1" xmlns="http://www.w3.org/2000/svg" xmlns:xlink="http://www.w3.org/1999/xlink">
    <title>more</title>
    <defs>
        <path d="M6.25,16 C7.21649831,16 8,16.7835017 8,17.75 C8,18.7164983 7.21649831,19.5 6.25,19.5 C5.28350169,19.5 4.5,18.7164983 4.5,17.75 C4.5,16.7835017 5.28350169,16 6.25,16 Z M17.75,16 C18.7164983,16 19.5,16.7835017 19.5,17.75 C19.5,18.7164983 18.7164983,19.5 17.75,19.5 C16.7835017,19.5 16,18.7164983 16,17.75 C16,16.7835017 16.7835017,16 17.75,16 Z M6.25,4.5 C7.21649831,4.5 8,5.28350169 8,6.25 C8,7.21649831 7.21649831,8 6.25,8 C5.28350169,8 4.5,7.21649831 4.5,6.25 C4.5,5.28350169 5.28350169,4.5 6.25,4.5 Z M17.75,4.5 C18.7164983,4.5 19.5,5.28350169 19.5,6.25 C19.5,7.21649831 18.7164983,8 17.75,8 C16.7835017,8 16,7.21649831 16,6.25 C16,5.28350169 16.7835017,4.5 17.75,4.5 Z" id="path-1"></path>
    </defs>
    <g id="页面-1" stroke="none" stroke-width="1" fill="none" fill-rule="evenodd">
        <g id="典型页面3：商品详情（折叠屏）" transform="translate(-623.000000, -40.000000)">
            <g id="more" transform="translate(623.000000, 40.000000)">
                <path d="M15,0 C23.2842712,0 30,6.71572875 30,15 C30,23.2842712 23.2842712,30 15,30 C6.71572875,30 0,23.2842712 0,15 C0,6.71572875 6.71572875,0 15,0 Z" id="路径" fill-opacity="0.4" fill="#000000" fill-rule="nonzero"></path>
                <g id="Public/ic_public_more" transform="translate(3.000000, 3.000000)">
                    <mask id="mask-2" fill="white">
                        <use xlink:href="#path-1"></use>
                    </mask>
                    <g id="形状结合"></g>
                    <g id="编组" mask="url(#mask-2)" fill="#FFFFFF">
                        <g id="Symbol/color-light/colorPrimary">
                            <rect id="color/#000000" x="0" y="0" width="24" height="24"></rect>
                        </g>
                    </g>
                </g>
            </g>
        </g>
    </g>
</svg>