<?xml version="1.0" encoding="UTF-8"?>
<svg width="30px" height="30px" viewBox="0 0 30 30" version="1.1" xmlns="http://www.w3.org/2000/svg" xmlns:xlink="http://www.w3.org/1999/xlink">
    <title>MatePad</title>
    <g id="页面-1" stroke="none" stroke-width="1" fill="none" fill-rule="evenodd">
        <g id="典型页面3：商品详情（折叠屏）" transform="translate(-569.000000, -40.000000)">
            <g id="MatePad" transform="translate(569.000000, 40.000000)">
                <path d="M15,0 C23.2842712,-1.52179594e-15 30,6.71572875 30,15 C30,23.2842712 23.2842712,30 15,30 C6.71572875,30 1.01453063e-15,23.2842712 0,15 C-1.01453063e-15,6.71572875 6.71572875,1.52179594e-15 15,0 Z" id="矩形" fill-opacity="0.4" fill="#000000"></path>
                <g id="icon_Pad" transform="translate(3.000000, 3.000000)" stroke="#FFFFFF" stroke-width="1.38461538">
                    <g id="编组-2" transform="translate(2.769231, 4.615385)">
                        <g id="悬浮窗图标">
                            <path d="M13.7282119,0.692307692 C15.1780331,0.692307692 15.7135033,0.818793296 16.2461467,1.10365413 C16.7254242,1.35997452 17.1015639,1.73611429 17.3578843,2.21539176 C17.6427452,2.7480352 17.7692308,3.28350539 17.7692308,4.73332652 L17.7692308,4.73332652 L17.7692308,10.0359042 C17.7692308,11.4857254 17.6427452,12.0211956 17.3578843,12.553839 C17.1015639,13.0331165 16.7254242,13.4092562 16.2461467,13.6655766 C15.7135033,13.9504375 15.1780331,14.0769231 13.7282119,14.0769231 L13.7282119,14.0769231 L4.73332652,14.0769231 C3.28350539,14.0769231 2.7480352,13.9504375 2.21539176,13.6655766 C1.73611429,13.4092562 1.35997452,13.0331165 1.10365413,12.553839 C0.818793296,12.0211956 0.692307692,11.4857254 0.692307692,10.0359042 L0.692307692,10.0359042 L0.692307692,4.73332652 C0.692307692,3.28350539 0.818793296,2.7480352 1.10365413,2.21539176 C1.35997452,1.73611429 1.73611429,1.35997452 2.21539176,1.10365413 C2.7480352,0.818793296 3.28350539,0.692307692 4.73332652,0.692307692 L4.73332652,0.692307692 Z" id="矩形"></path>
                        </g>
                        <path d="" id="矩形"></path>
                    </g>
                </g>
            </g>
        </g>
    </g>
</svg>