<?xml version="1.0" encoding="UTF-8"?>
<svg width="20px" height="20px" viewBox="0 0 20 20" version="1.1" xmlns="http://www.w3.org/2000/svg" xmlns:xlink="http://www.w3.org/1999/xlink">
    <title>切片</title>
    <defs>
        <path d="M13.226858,0.833333333 C14.6811084,0.833333333 15.2281761,0.981529344 15.7600667,1.26019581 L15.7947428,1.27855451 C16.3120856,1.55523243 16.7234006,1.9550872 17.0123554,2.46178633 L17.0547788,2.53859049 C17.3452906,3.08180037 17.5,3.62061077 17.5,5.10647533 L17.5,14.8935247 L17.499161,15.0781381 C17.4868668,16.3953175 17.3396881,16.9179685 17.0731375,17.4267333 L17.0547788,17.4614095 C16.7781009,17.9787522 16.3782461,18.3900672 15.871547,18.679022 L15.7947428,18.7214455 C15.251533,19.0119573 14.7127226,19.1666667 13.226858,19.1666667 L6.773142,19.1666667 L6.58852855,19.1658277 C5.27134916,19.1535334 4.74869819,19.0063547 4.23993332,18.7398042 L4.20525716,18.7214455 C3.68791442,18.4447676 3.27659942,18.0449128 2.98764465,17.5382137 L2.94522117,17.4614095 C2.65470935,16.9181996 2.5,16.3793892 2.5,14.8935247 L2.5,5.10647533 C2.5,3.65222491 2.64819601,3.1051572 2.92686248,2.57326665 L2.94522117,2.53859049 C3.2218991,2.02124775 3.62175387,1.60993276 4.128453,1.32097798 L4.20525716,1.27855451 C4.74846704,0.988042685 5.28727743,0.833333333 6.773142,0.833333333 L13.226858,0.833333333 Z M13.3961151,2.08392212 L6.68711528,2.08347951 L6.51921504,2.084715 C5.54590133,2.09598058 5.17484673,2.17754611 4.79475573,2.380821 C4.46938145,2.55483308 4.22149974,2.80271478 4.04748767,3.12808907 C3.82741799,3.5395836 3.75,3.94048684 3.75,5.10647533 L3.75014618,14.9795514 L3.75138166,15.1474516 C3.76264725,16.1207653 3.84421278,16.4918199 4.04748767,16.8719109 C4.22149974,17.1972852 4.46938145,17.4451669 4.79475573,17.619179 C5.18567554,17.8282452 5.56703671,17.9085682 6.60388491,17.9160779 L6.773142,17.9166667 L13.226858,17.9166667 C14.3928465,17.9166667 14.7937497,17.8392487 15.2052443,17.619179 C15.5306186,17.4451669 15.7785003,17.1972852 15.9525123,16.8719109 C16.1615785,16.4809911 16.2419016,16.09963 16.2494112,15.0627818 L16.25,14.8935247 L16.25,5.10647533 C16.25,3.94048684 16.172582,3.5395836 15.9525123,3.12808907 C15.7785003,2.80271478 15.5306186,2.55483308 15.2052443,2.380821 C14.8143245,2.17175481 14.4329633,2.09143176 13.3961151,2.08392212 Z M10,13.5416667 C10.345178,13.5416667 10.625,13.8214887 10.625,14.1666667 C10.625,14.5118446 10.345178,14.7916667 10,14.7916667 L6.25,14.7916667 C5.90482203,14.7916667 5.625,14.5118446 5.625,14.1666667 C5.625,13.8214887 5.90482203,13.5416667 6.25,13.5416667 L10,13.5416667 Z M13.75,9.375 C14.095178,9.375 14.375,9.65482203 14.375,10 C14.375,10.345178 14.095178,10.625 13.75,10.625 L6.25,10.625 C5.90482203,10.625 5.625,10.345178 5.625,10 C5.625,9.65482203 5.90482203,9.375 6.25,9.375 L13.75,9.375 Z M13.75,5.20833333 C14.095178,5.20833333 14.375,5.48815536 14.375,5.83333333 C14.375,6.1785113 14.095178,6.45833333 13.75,6.45833333 L6.25,6.45833333 C5.90482203,6.45833333 5.625,6.1785113 5.625,5.83333333 C5.625,5.48815536 5.90482203,5.20833333 6.25,5.20833333 L13.75,5.20833333 Z" id="path-1"></path>
    </defs>
    <g id="页面-1" stroke="none" stroke-width="1" fill="none" fill-rule="evenodd">
        <g id="Public/ic_favourites">
            <mask id="mask-2" fill="white">
                <use xlink:href="#path-1"></use>
            </mask>
            <g id="形状结合" fill-rule="nonzero"></g>
            <g id="编组" mask="url(#mask-2)" fill="#000000" fill-opacity="0.9">
                <g id="Symbol/color-light/colorPrimary">
                    <rect id="color/#000000" x="0" y="0" width="20" height="20"></rect>
                </g>
            </g>
        </g>
    </g>
</svg>