<?xml version="1.0" encoding="UTF-8"?>
<svg width="32px" height="32px" viewBox="0 0 32 32" version="1.1" xmlns="http://www.w3.org/2000/svg" xmlns:xlink="http://www.w3.org/1999/xlink">
    <title>gaps</title>
    <defs>
        <path d="M10,0.742036387 C14.2545423,0.742036387 17.7083333,4.13053865 17.7083333,8.31649668 C17.7083333,9.94669431 17.2145416,11.539594 16.2980238,13.1495045 C15.5904776,14.3923458 14.7060569,15.5450398 13.4406251,16.9745412 C12.9627621,17.5143615 12.3307521,18.1261502 11.5432452,18.8124859 L11.5432452,18.8124859 L11.3140108,19.0106125 C10.5867691,19.6341003 9.51748082,19.6534682 8.75780668,19.0513232 L8.75780668,19.0513232 L8.69854478,19.0019269 L8.42279985,18.7614446 C7.69829063,18.1260562 7.17011689,17.6333462 6.82899612,17.2724748 L6.82899612,17.2724748 L6.75071379,17.1883914 L6.55745089,16.9727413 C3.78412817,13.8533104 2.29166667,11.2081767 2.29166667,8.31649668 C2.29166667,4.16118712 5.58992573,0.809619204 9.7778738,0.742987163 L9.7778738,0.742987163 Z M10,6.45833333 C8.96446609,6.45833333 8.125,7.29779943 8.125,8.33333333 C8.125,9.36886724 8.96446609,10.2083333 10,10.2083333 C11.0355339,10.2083333 11.875,9.36886724 11.875,8.33333333 C11.875,7.29779943 11.0355339,6.45833333 10,6.45833333 Z" id="path-1"></path>
    </defs>
    <g id="页面-1" stroke="none" stroke-width="1" fill="none" fill-rule="evenodd">
        <g id="典型页面-3：商品详情（手机）备份" transform="translate(-28.000000, -264.000000)">
            <g id="Half-modal-panel" transform="translate(0.000000, 160.000000)">
                <g id="gaps" transform="translate(28.000000, 104.000000)">
                    <rect id="矩形" fill="#CF0A2C" x="0" y="0" width="32" height="32" rx="16"></rect>
                    <g id="Public/ic_public_gps_filled" transform="translate(6.000000, 6.000000)">
                        <mask id="mask-2" fill="white">
                            <use xlink:href="#path-1"></use>
                        </mask>
                        <g id="路径" fill-rule="nonzero"></g>
                        <g id="编组" mask="url(#mask-2)" fill="#FFFFFF">
                            <g id="Symbol/color-light/colorPrimary">
                                <rect id="color/#000000" x="0" y="0" width="20" height="20"></rect>
                            </g>
                        </g>
                    </g>
                </g>
            </g>
        </g>
    </g>
</svg>