<?xml version="1.0" encoding="UTF-8"?>
<svg width="17px" height="17px" viewBox="0 0 17 17" version="1.1" xmlns="http://www.w3.org/2000/svg" xmlns:xlink="http://www.w3.org/1999/xlink">
    <title>Public/ic_favourites</title>
    <defs>
        <path d="M14.5458347,13.767064 L17.3443851,16.5646683 C17.5884628,16.8087459 17.5884628,17.2044741 17.3443851,17.4485517 C17.1003074,17.6926294 16.7045793,17.6926294 16.4605016,17.4485517 L13.654746,14.6415746 C13.9744993,14.3741623 14.2725388,14.0816489 14.5458347,13.767064 Z M13.5808494,13.5808494 L13.5453393,13.6161074 C13.5286377,13.6325726 13.5118536,13.6489543 13.4949875,13.6652518 C13.4429624,13.7155194 13.3903408,13.7648196 13.3369649,13.8133042 C13.3188281,13.8297782 13.3007213,13.8460539 13.2825293,13.8622358 C13.2140701,13.9231328 13.144321,13.9827708 13.0734026,14.0410379 C13.0700006,14.0438334 13.0662722,14.0468906 13.0625405,14.0499441 L12.910594,14.170803 C11.7312033,15.0825209 10.2518697,15.625 8.64583333,15.625 C4.79134602,15.625 1.66666667,12.5003206 1.66666667,8.64583333 C1.66666667,4.79134602 4.79134602,1.66666667 8.64583333,1.66666667 C12.5003206,1.66666667 15.625,4.79134602 15.625,8.64583333 C15.625,10.3746843 14.9963813,11.9567134 13.9552439,13.1758207 L13.9552439,13.1758207 L13.9244023,13.2116888 C13.894953,13.2457052 13.8651803,13.279434 13.8350891,13.3128705 L13.7468863,13.4090655 L13.7468863,13.4090655 L13.7361909,13.420489 C13.6852613,13.4747645 13.6334736,13.5282252 13.5808494,13.5808494 Z M8.64583333,2.91666667 C5.48170195,2.91666667 2.91666667,5.48170195 2.91666667,8.64583333 C2.91666667,11.8099647 5.48170195,14.375 8.64583333,14.375 C11.8099647,14.375 14.375,11.8099647 14.375,8.64583333 C14.375,5.48170195 11.8099647,2.91666667 8.64583333,2.91666667 Z" id="path-1"></path>
    </defs>
    <g id="页面-1" stroke="none" stroke-width="1" fill="none" fill-rule="evenodd">
        <g id="视觉调整：典型页面-8：直播间购物袋_边看边选（平板）" transform="translate(-1137.000000, -55.000000)">
            <g id="编组-4" transform="translate(1128.000000, 54.000000)">
                <g id="Public/ic_favourites" transform="translate(8.000000, 0.000000)">
                    <mask id="mask-2" fill="white">
                        <use xlink:href="#path-1"></use>
                    </mask>
                    <g id="形状结合" fill-rule="nonzero"></g>
                    <g id="编组" mask="url(#mask-2)" fill="#000000" fill-opacity="0.9">
                        <g id="Symbol/color-light/colorPrimary">
                            <rect id="color/#000000" x="0" y="0" width="20" height="20"></rect>
                        </g>
                    </g>
                </g>
            </g>
        </g>
    </g>
</svg>