<svg width="24.000000" height="24.000000" viewBox="0 0 24 24" fill="none" xmlns="http://www.w3.org/2000/svg" xmlns:xlink="http://www.w3.org/1999/xlink">
	<desc>
			Created with Pixso.
	</desc>
	<defs>
		<clipPath id="clip827_152291">
			<rect id="undo" width="24.000000" height="24.000000" fill="white" fill-opacity="0"/>
		</clipPath>
	</defs>
	<g clip-path="url(#clip827_152291)">
		<g opacity="0.000000">
			<rect id="rect" width="24.000000" height="24.000000" fill="#000000" fill-opacity="1.000000"/>
		</g>
		<path id="path" d="M5.74 7.39L5.74 5.59C5.74 5.45 5.69 5.33 5.59 5.24C5.49 5.15 5.38 5.1 5.24 5.1C5.1 5.09 4.98 5.14 4.87 5.26L2.08 8.04C1.97 8.13 1.92 8.25 1.93 8.39C1.93 8.52 1.98 8.64 2.08 8.74C2.16 8.83 2.28 8.88 2.42 8.88L5.47 8.88L16.32 8.88C17.08 8.88 17.79 9.07 18.44 9.46C19.09 9.84 19.61 10.35 19.99 11C20.37 11.65 20.57 12.36 20.57 13.13C20.57 13.89 20.37 14.6 19.99 15.25C19.61 15.89 19.09 16.41 18.44 16.79C17.79 17.18 17.08 17.37 16.32 17.37L4.25 17.37C4.04 17.37 3.86 17.45 3.72 17.59C3.57 17.73 3.5 17.91 3.5 18.12C3.5 18.32 3.57 18.5 3.72 18.66C3.86 18.81 4.04 18.89 4.25 18.89L16.32 18.89C17.36 18.89 18.32 18.62 19.2 18.11C20.08 17.59 20.77 16.89 21.29 16.01C21.8 15.13 22.06 14.17 22.06 13.13C22.06 12.09 21.8 11.13 21.29 10.25C20.77 9.37 20.08 8.67 19.2 8.16C18.32 7.64 17.36 7.39 16.32 7.39L5.74 7.39Z" fill="#000000" fill-opacity="1.000000" fill-rule="nonzero"/>
	</g>
</svg>
