<svg width="40.000000" height="40.000000" viewBox="0 0 40 40" fill="none" xmlns="http://www.w3.org/2000/svg" xmlns:xlink="http://www.w3.org/1999/xlink">
	<desc>
			Created with Pixso.
	</desc>
	<defs>
		<filter id="filter_11_4497_dd" x="-0.199951" y="0.000000" width="40.000000" height="40.000000" filterUnits="userSpaceOnUse" color-interpolation-filters="sRGB">
			<feFlood flood-opacity="0" result="BackgroundImageFix"/>
			<feGaussianBlur in="BackgroundImage" stdDeviation="16.6667"/>
			<feComposite in2="SourceAlpha" operator="in" result="effect_backgroundBlur_1"/>
			<feBlend mode="normal" in="SourceGraphic" in2="effect_backgroundBlur_1" result="shape"/>
		</filter>
		<clipPath id="clip11_4495">
			<rect id="f3d1de36-e296-4e6f-bd60-b3b78ac5c43f的副本" width="40.000000" height="40.000000" transform="translate(-0.199951 0.000000)" fill="white" fill-opacity="0"/>
		</clipPath>
	</defs>
	<g clip-path="url(#clip11_4495)">
		<g opacity="0.600000" filter="url(#filter_11_4497_dd)">
			<circle id="circle" r="20.000000" transform="matrix(-1 0 0 1 19.8 20)" fill="#FFFFFF" fill-opacity="0"/>
			<circle id="circle" r="20.000000" transform="matrix(-1 0 0 1 19.8 20)" stroke="#000000" stroke-opacity="0" stroke-width="1.000000"/>
		</g>
		<circle id="circle" cx="12.698059" cy="24.124023" r="3.610000" fill="#000000" fill-opacity="0"/>
		<circle id="circle" cx="12.698059" cy="24.124023" r="3.610000" stroke="#0A59F7" stroke-opacity="1.000000" stroke-width="1.789000" stroke-linejoin="round"/>
		<circle id="circle" cx="27.411011" cy="24.124023" r="3.610000" fill="#000000" fill-opacity="0"/>
		<circle id="circle" cx="27.411011" cy="24.124023" r="3.610000" stroke="#0A59F7" stroke-opacity="1.000000" stroke-width="1.789000" stroke-linejoin="round"/>
		<path id="path" d="M16.3 24.58C15.81 24.58 15.41 24.18 15.41 23.69C15.41 23.23 15.75 22.85 16.2 22.8L16.3 22.79L17.63 22.79L16.34 17.96C16.21 17.49 16.49 16.99 16.97 16.87C17.41 16.75 17.87 16.99 18.03 17.4L19.43 22.62L24.02 15.05L23.59 13.28L21.99 13.28C21.53 13.28 21.15 12.94 21.1 12.49L21.09 12.39C21.09 11.93 21.44 11.55 21.88 11.5L21.99 11.5L24.28 11.5C24.65 11.5 24.97 11.72 25.11 12.06L25.14 12.16L28.27 23.89C28.4 24.37 28.11 24.86 27.64 24.98C27.19 25.1 26.74 24.87 26.57 24.45L24.69 17.4L20.6 24.15C20.46 24.39 20.22 24.54 19.95 24.57L19.83 24.58L16.3 24.58Z" fill="#0A59F7" fill-opacity="1.000000" fill-rule="nonzero"/>
		<path id="path" d="M15.41 23.69C15.41 23.23 15.75 22.85 16.2 22.8L16.3 22.79L17.63 22.79L16.34 17.96C16.21 17.49 16.49 16.99 16.97 16.87C17.41 16.75 17.87 16.99 18.03 17.4L19.43 22.62L24.02 15.05L23.59 13.28L21.99 13.28C21.53 13.28 21.15 12.94 21.1 12.49L21.09 12.39C21.09 11.93 21.44 11.55 21.88 11.5L21.99 11.5L24.28 11.5C24.65 11.5 24.97 11.72 25.11 12.06L25.14 12.16L28.27 23.89C28.4 24.37 28.11 24.86 27.64 24.98C27.19 25.1 26.74 24.87 26.57 24.45L24.69 17.4L20.6 24.15C20.46 24.39 20.22 24.54 19.95 24.57L19.83 24.58L16.3 24.58C15.81 24.58 15.41 24.18 15.41 23.69Z" stroke="#000000" stroke-opacity="0" stroke-width="1.000000"/>
		<path id="line" d="M15.48 18L15.46 18.02C14.96 18.02 14.57 17.63 14.57 17.13C14.57 16.63 14.96 16.23 15.46 16.23L15.48 16.25L15.48 18ZM18.64 16.25L18.66 16.23C19.16 16.23 19.56 16.63 19.56 17.13C19.56 17.63 19.16 18.02 18.66 18.02L18.64 18L18.64 16.25Z" fill="#000000" fill-opacity="0" fill-rule="nonzero"/>
		<path id="line" d="M15.46 17.13L18.66 17.13" stroke="#6294FA" stroke-opacity="1.000000" stroke-width="1.789000" stroke-linejoin="round" stroke-linecap="round"/>
	</g>
</svg>
