<svg width="20.000000" height="20.000000" viewBox="0 0 20 20" fill="none" xmlns="http://www.w3.org/2000/svg" xmlns:xlink="http://www.w3.org/1999/xlink">
	<desc>
			Created with Pixso.
	</desc>
	<defs/>
	<rect id="Public/ic_public_input_scan" width="20.000000" height="20.000000" transform="translate(0.000000 -0.650024)" fill="#FFCCCC" fill-opacity="0"/>
	<path id="形状结合" d="M8.54169 1.64168C8.54169 1.18144 8.16858 0.80835 7.70837 0.80835L5 0.80835L4.83368 0.812424C3.07001 0.899109 1.66669 2.35652 1.66669 4.14168L1.66669 6.85002L1.6723 6.9472C1.72046 7.36165 2.07263 7.68335 2.5 7.68335C2.96027 7.68335 3.33337 7.31026 3.33337 6.85002L3.33337 4.14168L3.33795 4.0173C3.40155 3.15491 4.1214 2.47502 5 2.47502L7.70837 2.47502L7.80554 2.46941C8.21997 2.42126 8.54169 2.06905 8.54169 1.64168ZM15 0.80835C16.7852 0.80835 18.2426 2.21165 18.3293 3.97531L18.3334 4.14168L18.3334 6.85002C18.3334 7.31026 17.9603 7.68335 17.5 7.68335C17.0726 7.68335 16.7205 7.36165 16.6723 6.9472L16.6667 6.85002L16.6667 4.14168C16.6667 3.26305 15.9868 2.54321 15.1244 2.47958L15 2.47502L12.2917 2.47502C11.8314 2.47502 11.4584 2.10191 11.4584 1.64168C11.4584 1.21432 11.78 0.862091 12.1945 0.81395L12.2917 0.80835L15 0.80835ZM15.0834 8.30835L4.91669 8.30835C4.5025 8.30835 4.16669 8.64413 4.16669 9.05835L4.16669 9.22502C4.16669 9.63924 4.5025 9.97502 4.91669 9.97502L15.0834 9.97502C15.4976 9.97502 15.8334 9.63924 15.8334 9.22502L15.8334 9.05835C15.8334 8.64413 15.4976 8.30835 15.0834 8.30835ZM3.32776 11.3362C3.2796 10.9217 2.92737 10.6 2.5 10.6C2.03979 10.6 1.66669 10.9731 1.66669 11.4333L1.66669 14.1417L1.67078 14.308C1.75745 16.0717 3.21484 17.475 5 17.475L7.70837 17.475L7.80554 17.4694C8.21997 17.4213 8.54169 17.069 8.54169 16.6417C8.54169 16.1814 8.16858 15.8083 7.70837 15.8083L5 15.8083L4.87561 15.8038C4.01324 15.7402 3.33337 15.0203 3.33337 14.1417L3.33337 11.4333L3.32776 11.3362ZM17.5 10.6C17.9274 10.6 18.2796 10.9217 18.3278 11.3362L18.3334 11.4333L18.3334 14.1417C18.3334 15.9268 16.9301 17.3842 15.1664 17.4709L15 17.475L12.2917 17.475C11.8314 17.475 11.4584 17.1019 11.4584 16.6417C11.4584 16.2143 11.78 15.8621 12.1945 15.814L12.2917 15.8083L15 15.8083C15.8787 15.8083 16.5985 15.1284 16.6621 14.2661L16.6667 14.1417L16.6667 11.4333C16.6667 10.9731 17.0398 10.6 17.5 10.6Z" clip-rule="evenodd" fill="#000000" fill-opacity="0.000000" fill-rule="evenodd"/>
	<mask id="mask19_964" maskUnits="userSpaceOnUse" x="1.666687" y="0.808350" width="16.666668" height="16.666668">
		<path id="形状结合" d="M8.54169 1.64168C8.54169 1.18144 8.16858 0.80835 7.70837 0.80835L5 0.80835L4.83368 0.812424C3.07001 0.899109 1.66669 2.35652 1.66669 4.14168L1.66669 6.85002L1.6723 6.9472C1.72046 7.36165 2.07263 7.68335 2.5 7.68335C2.96027 7.68335 3.33337 7.31026 3.33337 6.85002L3.33337 4.14168L3.33795 4.0173C3.40155 3.15491 4.1214 2.47502 5 2.47502L7.70837 2.47502L7.80554 2.46941C8.21997 2.42126 8.54169 2.06905 8.54169 1.64168ZM15 0.80835C16.7852 0.80835 18.2426 2.21165 18.3293 3.97531L18.3334 4.14168L18.3334 6.85002C18.3334 7.31026 17.9603 7.68335 17.5 7.68335C17.0726 7.68335 16.7205 7.36165 16.6723 6.9472L16.6667 6.85002L16.6667 4.14168C16.6667 3.26305 15.9868 2.54321 15.1244 2.47958L15 2.47502L12.2917 2.47502C11.8314 2.47502 11.4584 2.10191 11.4584 1.64168C11.4584 1.21432 11.78 0.862091 12.1945 0.81395L12.2917 0.80835L15 0.80835ZM15.0834 8.30835L4.91669 8.30835C4.5025 8.30835 4.16669 8.64413 4.16669 9.05835L4.16669 9.22502C4.16669 9.63924 4.5025 9.97502 4.91669 9.97502L15.0834 9.97502C15.4976 9.97502 15.8334 9.63924 15.8334 9.22502L15.8334 9.05835C15.8334 8.64413 15.4976 8.30835 15.0834 8.30835ZM3.32776 11.3362C3.2796 10.9217 2.92737 10.6 2.5 10.6C2.03979 10.6 1.66669 10.9731 1.66669 11.4333L1.66669 14.1417L1.67078 14.308C1.75745 16.0717 3.21484 17.475 5 17.475L7.70837 17.475L7.80554 17.4694C8.21997 17.4213 8.54169 17.069 8.54169 16.6417C8.54169 16.1814 8.16858 15.8083 7.70837 15.8083L5 15.8083L4.87561 15.8038C4.01324 15.7402 3.33337 15.0203 3.33337 14.1417L3.33337 11.4333L3.32776 11.3362ZM17.5 10.6C17.9274 10.6 18.2796 10.9217 18.3278 11.3362L18.3334 11.4333L18.3334 14.1417C18.3334 15.9268 16.9301 17.3842 15.1664 17.4709L15 17.475L12.2917 17.475C11.8314 17.475 11.4584 17.1019 11.4584 16.6417C11.4584 16.2143 11.78 15.8621 12.1945 15.814L12.2917 15.8083L15 15.8083C15.8787 15.8083 16.5985 15.1284 16.6621 14.2661L16.6667 14.1417L16.6667 11.4333C16.6667 10.9731 17.0398 10.6 17.5 10.6Z" clip-rule="evenodd" fill="#C4C4C4" fill-opacity="1.000000" fill-rule="evenodd"/>
	</mask>
	<g mask="url(#mask19_964)">
		<rect id="color/#000000" y="-0.650024" width="20.000000" height="20.000000" fill="#FFFFFF" fill-opacity="0.901961"/>
	</g>
</svg>
