<svg width="40.000000" height="40.000000" viewBox="0 0 40 40" fill="none" xmlns="http://www.w3.org/2000/svg" xmlns:xlink="http://www.w3.org/1999/xlink">
	<desc>
			Created with Pixso.
	</desc>
	<defs>
		<filter id="filter_18_3555_dd" x="0.000000" y="0.000000" width="40.000000" height="40.000000" filterUnits="userSpaceOnUse" color-interpolation-filters="sRGB">
			<feFlood flood-opacity="0" result="BackgroundImageFix"/>
			<feGaussianBlur in="BackgroundImage" stdDeviation="16.6667"/>
			<feComposite in2="SourceAlpha" operator="in" result="effect_backgroundBlur_1"/>
			<feBlend mode="normal" in="SourceGraphic" in2="effect_backgroundBlur_1" result="shape"/>
		</filter>
		<clipPath id="clip18_3562">
			<rect id="78e5e716-ff02-478a-b40c-78fa12b82b87" width="40.000000" height="40.000000" fill="white" fill-opacity="0"/>
		</clipPath>
	</defs>
	<g clip-path="url(#clip18_3562)">
		<g opacity="0.600000" filter="url(#filter_18_3555_dd)">
			<circle id="circle" cx="20.000000" cy="20.000000" r="20.000000" fill="#FFFFFF" fill-opacity="0"/>
			<circle id="circle" cx="20.000000" cy="20.000000" r="20.000000" stroke="#000000" stroke-opacity="0" stroke-width="1.000000"/>
		</g>
		<path id="path" d="M24.17 10C25.93 10 27.36 11.38 27.36 13.09C27.36 13.52 27.27 13.93 27.11 14.3L28.18 14.3C29.18 14.3 30 15.11 30 16.12L30 18.8C30 19.8 29.18 20.62 28.18 20.62L21.48 20.62L21.48 14.31L18.52 14.31L18.52 20.62L11.81 20.62C10.81 20.62 10 19.8 10 18.8L10 16.12C10 15.11 10.81 14.3 11.81 14.3L12.74 14.3C12.58 13.93 12.49 13.52 12.49 13.09C12.49 11.38 13.92 10 15.68 10C16.66 10 17.52 10.37 18.22 11.08C18.63 11.51 19.2 12.25 19.93 13.33C20.65 12.25 21.22 11.51 21.63 11.08C22.33 10.37 23.19 10 24.17 10ZM15.68 11.61C14.84 11.61 14.15 12.27 14.15 13.09C14.15 13.59 14.41 14.03 14.8 14.3L18.52 14.31C17.82 13.27 17.36 12.55 17.01 12.19C16.62 11.79 16.19 11.61 15.68 11.61ZM24.17 11.61C23.66 11.61 23.23 11.79 22.84 12.19C22.5 12.55 21.96 13.25 21.26 14.3L25.05 14.3C25.44 14.03 25.7 13.59 25.7 13.09C25.7 12.27 25.02 11.61 24.17 11.61Z" fill="#0A59F7" fill-opacity="1.000000" fill-rule="evenodd"/>
		<path id="path" d="M28.17 20.62L28.17 27.27C28.17 28.77 26.95 30 25.44 30L21.48 30L21.48 20.62L28.17 20.62ZM18.52 30L14.54 30C13.03 30 11.81 28.77 11.81 27.27L11.81 20.62L18.52 20.62L18.52 30Z" fill="#6294FA" fill-opacity="0.600000" fill-rule="evenodd"/>
		<path id="path" d="M28.17 27.27C28.17 28.77 26.95 30 25.44 30L21.48 30L21.48 20.62L28.17 20.62L28.17 27.27ZM14.54 30C13.03 30 11.81 28.77 11.81 27.27L11.81 20.62L18.52 20.62L18.52 30L14.54 30Z" stroke="#000000" stroke-opacity="0" stroke-width="1.000000"/>
		<g opacity="0.600000">
			<path id="polygon" d="M18.52 20.62L21.48 20.62L21.48 14.31L18.52 14.31L18.52 20.62Z" fill="#6294FA" fill-opacity="1.000000" fill-rule="evenodd"/>
			<path id="polygon" d="M21.48 20.62L21.48 14.31L18.52 14.31L18.52 20.62L21.48 20.62Z" stroke="#000000" stroke-opacity="0" stroke-width="1.000000"/>
		</g>
		<g opacity="0.400000">
			<path id="polygon" d="M18.52 30L21.48 30L21.48 20.62L18.52 20.62L18.52 30Z" fill="#6294FA" fill-opacity="1.000000" fill-rule="evenodd"/>
			<path id="polygon" d="M21.48 30L21.48 20.62L18.52 20.62L18.52 30L21.48 30Z" stroke="#000000" stroke-opacity="0" stroke-width="1.000000"/>
		</g>
	</g>
</svg>
