<?xml version="1.0" encoding="UTF-8"?>
<svg width="25px" height="24px" viewBox="0 0 25 24" version="1.1" xmlns="http://www.w3.org/2000/svg" xmlns:xlink="http://www.w3.org/1999/xlink">
    <title>编组 5</title>
    <defs>
        <path d="M5.11710401,10.5 C6.30605717,10.5 6.85734318,10.6474289 7.37499024,10.9242696 C7.89263729,11.2011103 8.29888974,11.6073627 8.57573041,12.1250098 L8.62769168,12.2257818 C8.87098053,12.7164447 9,13.2706495 9,14.382896 L9,15.617104 C9,16.8060572 8.85257109,17.3573432 8.57573041,17.8749902 C8.29888974,18.3926373 7.89263729,18.7988897 7.37499024,19.0757304 L7.27421823,19.1276917 C6.78355532,19.3709805 6.22935051,19.5 5.11710401,19.5 L3.88289599,19.5 C2.69394283,19.5 2.14265682,19.3525711 1.62500976,19.0757304 C1.10736271,18.7988897 0.701110265,18.3926373 0.424269588,17.8749902 L0.372308324,17.7742182 C0.137408745,17.3004747 0.009033768,16.767496 0.000459631152,15.7301936 L0,14.382896 C0,13.1939428 0.147428912,12.6426568 0.424269588,12.1250098 C0.701110265,11.6073627 1.10736271,11.2011103 1.62500976,10.9242696 L1.72578177,10.8723083 C2.19952527,10.6374087 2.73250402,10.5090338 3.76980637,10.5004596 L5.11710401,10.5 Z M15.617104,10.5 C16.8060572,10.5 17.3573432,10.6474289 17.8749902,10.9242696 C18.3926373,11.2011103 18.7988897,11.6073627 19.0757304,12.1250098 L19.1276917,12.2257818 C19.3709805,12.7164447 19.5,13.2706495 19.5,14.382896 L19.5,15.617104 C19.5,16.8060572 19.3525711,17.3573432 19.0757304,17.8749902 C18.7988897,18.3926373 18.3926373,18.7988897 17.8749902,19.0757304 L17.7742182,19.1276917 C17.2835553,19.3709805 16.7293505,19.5 15.617104,19.5 L14.382896,19.5 C13.1939428,19.5 12.6426568,19.3525711 12.1250098,19.0757304 C11.6073627,18.7988897 11.2011103,18.3926373 10.9242696,17.8749902 L10.8723083,17.7742182 C10.6374087,17.3004747 10.5090338,16.767496 10.5004596,15.7301936 L10.5,14.382896 C10.5,13.1939428 10.6474289,12.6426568 10.9242696,12.1250098 C11.2011103,11.6073627 11.6073627,11.2011103 12.1250098,10.9242696 L12.2257818,10.8723083 C12.6995253,10.6374087 13.232504,10.5090338 14.2698064,10.5004596 L15.617104,10.5 Z M5.11710401,0 C6.30605717,0 6.85734318,0.147428912 7.37499024,0.424269588 C7.89263729,0.701110265 8.29888974,1.10736271 8.57573041,1.62500976 L8.62769168,1.72578177 C8.87098053,2.21644468 9,2.77064949 9,3.88289599 L9,5.11710401 C9,6.30605717 8.85257109,6.85734318 8.57573041,7.37499024 C8.29888974,7.89263729 7.89263729,8.29888974 7.37499024,8.57573041 L7.27421823,8.62769168 C6.78355532,8.87098053 6.22935051,9 5.11710401,9 L3.88289599,9 C2.69394283,9 2.14265682,8.85257109 1.62500976,8.57573041 C1.10736271,8.29888974 0.701110265,7.89263729 0.424269588,7.37499024 L0.372308324,7.27421823 C0.137408745,6.80047473 0.009033768,6.26749598 0.000459631152,5.23019363 L0,3.88289599 C0,2.69394283 0.147428912,2.14265682 0.424269588,1.62500976 C0.701110265,1.10736271 1.10736271,0.701110265 1.62500976,0.424269588 L1.72578177,0.372308324 C2.19952527,0.137408745 2.73250402,0.009033768 3.76980637,0.000459631152 L5.11710401,0 Z M15.617104,0 C16.8060572,0 17.3573432,0.147428912 17.8749902,0.424269588 C18.3926373,0.701110265 18.7988897,1.10736271 19.0757304,1.62500976 L19.1276917,1.72578177 C19.3709805,2.21644468 19.5,2.77064949 19.5,3.88289599 L19.5,5.11710401 C19.5,6.30605717 19.3525711,6.85734318 19.0757304,7.37499024 C18.7988897,7.89263729 18.3926373,8.29888974 17.8749902,8.57573041 L17.7742182,8.62769168 C17.2835553,8.87098053 16.7293505,9 15.617104,9 L14.382896,9 C13.1939428,9 12.6426568,8.85257109 12.1250098,8.57573041 C11.6073627,8.29888974 11.2011103,7.89263729 10.9242696,7.37499024 L10.8723083,7.27421823 C10.6374087,6.80047473 10.5090338,6.26749598 10.5004596,5.23019363 L10.5,3.88289599 C10.5,2.69394283 10.6474289,2.14265682 10.9242696,1.62500976 C11.2011103,1.10736271 11.6073627,0.701110265 12.1250098,0.424269588 L12.2257818,0.372308324 C12.6995253,0.137408745 13.232504,0.009033768 14.2698064,0.000459631152 L15.617104,0 Z" id="path-1"></path>
    </defs>
    <g id="页面-1" stroke="none" stroke-width="1" fill="none" fill-rule="evenodd">
        <g id="典型页面2：商品分类（手机）" transform="translate(-96.000000, -699.000000)">
            <g id="BottomNavigationBar/Port/Item_5备份-3" transform="translate(0.000000, 692.000000)">
                <g id="Bottomtab/item/normal" transform="translate(75.272727, 7.000000)">
                    <g id="编组-5" transform="translate(21.000000, 0.000000)">
                        <rect id="矩形" x="0" y="0" width="24" height="24"></rect>
                        <g id="tab/ic_备份-68" transform="translate(1.977273, 2.250000)">
                            <mask id="mask-2" fill="white">
                                <use xlink:href="#path-1"></use>
                            </mask>
                            <use id="形状结合" fill="#D20A2C" xlink:href="#path-1"></use>
                        </g>
                    </g>
                </g>
            </g>
        </g>
    </g>
</svg>