<?xml version="1.0" encoding="UTF-8"?>
<svg width="18px" height="18px" viewBox="0 0 18 18" version="1.1" xmlns="http://www.w3.org/2000/svg" xmlns:xlink="http://www.w3.org/1999/xlink">
    <title>Public/ic_favourites</title>
    <defs>
        <path d="M15,1.66666667 C16.8409492,1.66666667 18.3333333,3.15905083 18.3333333,5 L18.3333333,15 C18.3333333,16.8409492 16.8409492,18.3333333 15,18.3333333 L5,18.3333333 C3.15905083,18.3333333 1.66666667,16.8409492 1.66666667,15 L1.66666667,5 C1.66666667,3.15905083 3.15905083,1.66666667 5,1.66666667 L15,1.66666667 Z M15,2.91666667 L5,2.91666667 C3.8954305,2.91666667 2.99163444,3.77627995 2.92109807,4.86302026 L2.91666667,5 L2.91666667,15 C2.91666667,16.1045695 3.77627995,17.0083656 4.86302026,17.0789019 L5,17.0833333 L15,17.0833333 C16.1045695,17.0833333 17.0083656,16.2237201 17.0789019,15.1369797 L17.0833333,15 L17.0833333,5 C17.0833333,3.8954305 16.2237201,2.99163444 15.1369797,2.92109807 L15,2.91666667 Z M13.75,5 C14.095178,5 14.375,5.27982203 14.375,5.625 C14.375,8.04124578 12.4162458,10 10,10 C7.58375422,10 5.625,8.04124578 5.625,5.625 C5.625,5.27982203 5.90482203,5 6.25,5 C6.59517797,5 6.875,5.27982203 6.875,5.625 C6.875,7.35088984 8.27411016,8.75 10,8.75 C11.7258898,8.75 13.125,7.35088984 13.125,5.625 C13.125,5.27982203 13.404822,5 13.75,5 Z" id="path-1"></path>
    </defs>
    <g id="页面-1" stroke="none" stroke-width="1" fill="none" fill-rule="evenodd">
        <g id="视觉调整：典型页面-8：直播间购物袋_边看边选（平板）" transform="translate(-1085.000000, -55.000000)">
            <g id="编组-5" transform="translate(1076.000000, 54.000000)">
                <g id="Public/ic_favourites" transform="translate(8.000000, 0.000000)">
                    <mask id="mask-2" fill="white">
                        <use xlink:href="#path-1"></use>
                    </mask>
                    <g id="形状结合" fill-rule="nonzero"></g>
                    <g id="编组" mask="url(#mask-2)" fill="#000000" fill-opacity="0.9">
                        <g id="Symbol/color-light/colorPrimary">
                            <rect id="color/#000000" x="0" y="0" width="20" height="20"></rect>
                        </g>
                    </g>
                </g>
            </g>
        </g>
    </g>
</svg>